<?xml version="1.0" standalone="no"?><!DOCTYPE svg PUBLIC "-//W3C//DTD SVG 1.1//EN" "http://www.w3.org/Graphics/SVG/1.1/DTD/svg11.dtd"><svg t="1506739049480" class="icon" style="" viewBox="0 0 1024 1024" version="1.1" xmlns="http://www.w3.org/2000/svg" p-id="2003" xmlns:xlink="http://www.w3.org/1999/xlink" width="64" height="64"><defs><style type="text/css"></style></defs><path d="M208.384 715.264V242.688v-1.536c0-10.752 2.048-20.48 5.632-29.696L0 262.144l56.832 431.104 152.576 33.28c-0.512-3.584-1.024-7.168-1.024-11.264M839.68 227.328c1.024 4.608 1.536 9.216 1.536 13.824V384h-55.296V245.248c-0.512-12.8-10.752-23.04-23.552-23.04-12.8 0-23.552 10.752-23.552 23.552v466.944c1.024 12.288 10.752 22.016 23.552 22.016 12.8 0 23.552-10.24 23.552-23.552v-138.24h55.296v142.336c0 46.08-35.328 79.36-78.848 79.36s-78.848-35.328-78.848-79.36V241.152c0-30.208 17.408-56.32 42.496-69.632l-112.128-54.784-274.944 65.024c16.384 14.336 27.136 35.328 27.136 59.392V384H310.784V245.76c0-12.8-10.752-23.552-23.552-23.552-12.8 0-23.552 10.24-23.552 23.552v465.92c0 12.8 10.752 23.04 23.552 23.04 12.8 0 23.552-10.24 23.552-23.552v-138.24h-23.552v-59.904h78.848v201.728c0 15.872-4.608 30.72-12.288 43.008l73.216 15.872V255.488c9.216 4.096 19.456 6.656 30.208 6.656 10.752 0 20.992-2.56 29.696-6.656v531.456l151.552 33.28-75.264 100.864 201.728-75.264 201.728-177.664L1024 317.44l-184.32-90.112z m-382.976-5.12c-16.384 0-29.696-13.312-29.696-30.208 0-16.384 13.312-29.696 29.696-29.696 16.384 0 29.696 13.312 29.696 29.696 0.512 16.896-12.8 30.208-29.696 30.208m198.656 0h-37.888v572.416h-59.904V222.208h-36.864c4.096-9.216 6.656-19.456 6.656-30.208 0-10.752-2.56-20.992-6.656-29.696H655.36v59.904z" fill="#00AEEB" p-id="2004"></path></svg>